# xmcd CD database file
# Copyright (C) 1996 Ti Kan
#
# Track frame offsets:
# 	125
# 	18855
# 	34703
# 	51375
# 	68148
# 	79873
# 	98553
# 	113875
# 	124893
# 	146715
#
# Disc length: 2225 seconds
#
# Revision: 1
# Processed by: cddbd v1.4b41PL1 Copyright (c) Steve Scherf et al.
# Submitted via: DiscPlay 3.4
#
DISCID=8308b00a
DTITLE=Brewers Droop - The Booze Brothers
DYEAR=1900
DGENRE=
TTITLE0=Where are you tonight
TTITLE1=Roller Coaster
TTITLE2=You make me feel so good
TTITLE3=My old lady
TTITLE4=Sugar baby
TTITLE5=Rock steady woman
TTITLE6=Louise
TTITLE7=What's the time
TTITLE8=Midnight special
TTITLE9=Dreaming
EXTD=
EXTT0=
EXTT1=
EXTT2=
EXTT3=
EXTT4=
EXTT5=
EXTT6=
EXTT7=
EXTT8=
EXTT9=
PLAYORDER=
